<svg width="27" height="33" viewBox="0 0 27 33" fill="none" xmlns="http://www.w3.org/2000/svg">
<path d="M7.73611 19.8791C7.73611 19.3268 8.18383 18.8791 8.73611 18.8791H18.2655C18.8178 18.8791 19.2655 19.3268 19.2655 19.8791V23.176C19.2655 23.7283 18.8178 24.176 18.2655 24.176H8.73611C8.18383 24.176 7.73611 23.7283 7.73611 23.176V19.8791Z" fill="#FF498B" stroke="#152C5B" stroke-width="2" stroke-miterlimit="16" stroke-linecap="round"/>
<path d="M20.0088 6.76672C19.6541 6.76672 19.3664 7.05434 19.3664 7.40916V11.1121C19.3664 12.1548 18.5181 13.0031 17.4753 13.0031H15.497V11.893C15.497 11.5382 15.2093 11.2506 14.8545 11.2506H12.1454C11.7906 11.2506 11.503 11.5382 11.503 11.893V13.0031H9.52608C8.48335 13.0031 7.63502 12.1548 7.63502 11.1121V7.40916C7.63502 7.05434 7.34741 6.76672 6.99259 6.76672C6.63778 6.76672 6.35016 7.05434 6.35016 7.40916V11.1121C6.35016 12.8633 7.77488 14.288 9.52608 14.288H11.503V15.4676C11.503 15.8224 11.7906 16.11 12.1454 16.11H14.8545C15.2093 16.11 15.497 15.8224 15.497 15.4676V14.288H17.4753C19.2265 14.288 20.6513 12.8633 20.6513 11.1121V7.40916C20.6513 7.05434 20.3636 6.76672 20.0088 6.76672ZM14.2121 14.8251H12.7878V12.5354H14.2121V14.8251Z" fill="#152C5B"/>
<path d="M27 25.6693V18.9183C27 17.9671 26.2261 17.1932 25.2749 17.1932H24.0599V2.75533C24.0599 1.23604 22.8239 0 21.3046 0C19.7854 0 18.5493 1.23604 18.5493 2.75533V3.65287H8.45222V2.75533C8.45222 1.23604 7.21624 0 5.69689 0C4.17754 0 2.9415 1.23604 2.9415 2.75533V17.1932H1.72512C0.773873 17.1932 0 17.9671 0 18.9183V25.6693C0 26.6464 0.454007 27.5195 1.1621 28.0886C0.549536 28.5845 0.157267 29.3422 0.157267 30.1899C0.157267 31.6801 1.36966 32.8925 2.85991 32.8925H24.1416C25.6318 32.8925 26.8442 31.6801 26.8442 30.1899C26.8442 29.3419 26.4516 28.5838 25.8387 28.088C26.5463 27.5188 27 26.6461 27 25.6693ZM25.2749 18.4781C25.5176 18.4781 25.7151 18.6756 25.7151 18.9183V25.6693C25.7151 26.6169 24.9864 27.3975 24.0599 27.4801V18.4781H25.2749ZM4.22643 27.4873V8.09329C4.22643 6.35333 5.64203 4.93773 7.38199 4.93773H19.6196C21.3595 4.93773 22.775 6.35333 22.775 8.09329V27.4873H4.22643ZM17.9096 28.7721V31.6076H9.09048V28.7721H17.9096ZM21.3046 1.28486C22.1155 1.28486 22.7751 1.94451 22.7751 2.75533V4.97217C22.0167 4.20549 20.9818 3.71287 19.8342 3.65801V2.75533C19.8341 1.94451 20.4938 1.28486 21.3046 1.28486ZM4.22643 2.75533C4.22643 1.94451 4.88608 1.28486 5.69696 1.28486C6.50777 1.28486 7.16742 1.94451 7.16742 2.75533V3.65801C6.01971 3.71287 4.98482 4.20549 4.22643 4.97217V2.75533ZM1.28486 18.9183C1.28486 18.6756 1.48235 18.4781 1.72512 18.4781H2.94009V27.48C2.01357 27.3975 1.28486 26.6168 1.28486 25.6693V18.9183ZM1.44213 30.1899C1.44213 29.4081 2.07814 28.7721 2.85991 28.7721H5.08279V31.6076H2.85991C2.07814 31.6076 1.44213 30.9716 1.44213 30.1899ZM6.36766 31.6076V28.7721H7.80561V31.6076H6.36766ZM19.1945 31.6076V28.7721H20.6324V31.6076H19.1945ZM24.1416 28.7721C24.9233 28.7721 25.5593 29.4081 25.5593 30.1899C25.5593 30.9716 24.9233 31.6076 24.1416 31.6076H21.9173V28.7721H24.1416Z" fill="#152C5B"/>
</svg>
