<svg width="27" height="22" viewBox="0 0 27 22" fill="none" xmlns="http://www.w3.org/2000/svg">
<path d="M17.6523 12.0131C17.6523 14.4 15.7703 16.293 13.5001 16.293C11.2298 16.293 9.34784 14.4 9.34784 12.0131C9.34784 9.62617 11.2298 7.73322 13.5001 7.73322C15.7703 7.73322 17.6523 9.62617 17.6523 12.0131Z" fill="#FF498B" stroke="#152C5B" stroke-width="2"/>
<path d="M24.7083 2.97648H23.5499V2.02827C23.5499 1.7298 23.3138 1.48786 23.0226 1.48786C22.7313 1.48786 22.4952 1.7298 22.4952 2.02827V2.97648H21.9302L21.0017 0.355969C20.9259 0.142291 20.7278 0 20.506 0H6.49409C6.27224 0 6.07412 0.142291 5.99844 0.355969L5.06989 2.97648H2.29184C1.02811 2.97648 0 4.03007 0 5.32506V18.7011C0 19.9961 1.02811 21.0496 2.29179 21.0496H24.7082C25.9719 21.0496 27 19.9961 27 18.7011V5.32506C27.0001 4.03007 25.9719 2.97648 24.7083 2.97648ZM6.86366 1.08088H20.1364L20.8081 2.97653H6.19192L6.86366 1.08088ZM2.29179 19.9688C1.60967 19.9688 1.05469 19.4001 1.05469 18.7011V5.32506C1.05469 4.62598 1.60967 4.0573 2.29179 4.0573H9.32092C6.56107 5.58591 4.68193 8.57882 4.68193 12.013C4.68193 15.4473 6.56107 18.4402 9.32092 19.9688H2.29179ZM13.5 4.0573C17.7808 4.0573 21.2634 7.62624 21.2634 12.013C21.2634 16.3999 17.7808 19.9688 13.5 19.9688C9.21925 19.9688 5.73661 16.3999 5.73661 12.013C5.73661 7.62624 9.21925 4.0573 13.5 4.0573ZM25.9454 18.7011C25.9454 19.4001 25.3904 19.9688 24.7083 19.9688H17.6791C20.439 18.4402 22.3181 15.4473 22.3181 12.013C22.3181 8.57877 20.439 5.58586 17.6791 4.0573H24.7083C25.3904 4.0573 25.9454 4.62598 25.9454 5.32506V18.7011Z" fill="#152C5B"/>
<path d="M11.5273 13.1425C11.8186 13.1425 12.0547 12.9006 12.0547 12.6021C12.0547 11.2999 13.0885 10.2405 14.3593 10.2405C14.6505 10.2405 14.8866 9.99852 14.8866 9.70005C14.8866 9.40158 14.6505 9.15964 14.3593 9.15964C12.507 9.15964 11 10.7039 11 12.6021C11 12.9006 11.2361 13.1425 11.5273 13.1425Z" fill="white"/>
<path d="M3.79128 5.57959H2.9296C2.63834 5.57959 2.40225 5.82153 2.40225 6.12C2.40225 6.41847 2.63834 6.66041 2.9296 6.66041H3.79128C4.08253 6.66041 4.31862 6.41847 4.31862 6.12C4.31862 5.82153 4.08253 5.57959 3.79128 5.57959Z" fill="#152C5B"/>
<path d="M24.0705 5.57959H23.2088C22.9176 5.57959 22.6815 5.82153 22.6815 6.12C22.6815 6.41847 22.9176 6.66041 23.2088 6.66041H24.0705C24.3618 6.66041 24.5979 6.41847 24.5979 6.12C24.5979 5.82153 24.3618 5.57959 24.0705 5.57959Z" fill="#152C5B"/>
<path d="M3.79128 17.3657H2.9296C2.63834 17.3657 2.40225 17.6077 2.40225 17.9061C2.40225 18.2046 2.63834 18.4465 2.9296 18.4465H3.79128C4.08253 18.4465 4.31862 18.2046 4.31862 17.9061C4.31862 17.6077 4.08253 17.3657 3.79128 17.3657Z" fill="#152C5B"/>
<path d="M24.0705 17.3657H23.2088C22.9176 17.3657 22.6815 17.6077 22.6815 17.9061C22.6815 18.2046 22.9176 18.4465 23.2088 18.4465H24.0705C24.3618 18.4465 24.5979 18.2046 24.5979 17.9061C24.5979 17.6077 24.3618 17.3657 24.0705 17.3657Z" fill="#152C5B"/>
</svg>
