<svg width="27" height="33" viewBox="0 0 27 33" fill="none" xmlns="http://www.w3.org/2000/svg">
<path d="M21.6056 14.156C21.6033 17.7949 19.0982 20.8769 15.6655 21.7975H11.3957C10.0374 21.4335 8.82244 20.7295 7.85044 19.7844C8.05104 17.9795 9.60547 16.5559 11.5188 16.5559H11.6738C12.4599 16.5559 13.1856 16.7967 13.7829 17.2062L14.639 17.7931L15.1936 16.9157C16.2399 15.2604 18.1047 14.156 20.2367 14.156H21.6056Z" fill="#FF498B" stroke="#152C5B" stroke-width="2"/>
<path d="M10.8333 7.38342C9.50588 7.38342 8.42593 8.4483 8.42593 9.75715C8.42593 11.066 9.50588 12.1308 10.8333 12.1308C12.1608 12.1308 13.2408 11.066 13.2408 9.75715C13.2408 8.4483 12.1608 7.38342 10.8333 7.38342ZM10.8333 10.8461C10.2244 10.8461 9.72896 10.3577 9.72896 9.75722C9.72896 9.15672 10.2244 8.66825 10.8333 8.66825C11.4424 8.66825 11.9378 9.15672 11.9378 9.75722C11.9378 10.3576 11.4424 10.8461 10.8333 10.8461Z" fill="#152C5B"/>
<path d="M13.5 0C6.05606 0 0 5.95746 0 13.2802C0 16.3211 1.07161 19.2933 3.01734 21.649C4.87422 23.8971 7.44801 25.4993 10.2897 26.1823L11.2928 27.8608C9.04532 28.2305 7.64223 29.1425 7.64223 30.2885C7.64229 31.9964 10.5891 32.89 13.5 32.89C16.411 32.89 19.3578 31.9964 19.3578 30.2886C19.3578 29.1427 17.9546 28.2306 15.7072 27.8609L16.7103 26.1824C19.552 25.4994 22.1258 23.8972 23.9827 21.6491C25.9284 19.2934 27 16.3213 27 13.2803C27.0001 5.95746 20.944 0 13.5 0V0ZM18.0547 30.2886C18.0547 30.6707 16.4587 31.6052 13.5 31.6052C10.5414 31.6052 8.94532 30.6707 8.94532 30.2886C8.94532 29.9695 9.99562 29.2976 12.0084 29.0581L12.9388 30.6147C13.0559 30.8107 13.2693 30.931 13.5 30.931C13.7307 30.931 13.9442 30.8107 14.0613 30.6147L14.9917 29.0581C17.0044 29.2977 18.0547 29.9697 18.0547 30.2886ZM16.1503 24.9918C15.9737 25.0303 15.8213 25.1393 15.7295 25.2929L13.5 29.0233L11.2706 25.2929C11.1788 25.1393 11.0264 25.0303 10.8498 24.9918C5.31803 23.7867 1.30302 18.8613 1.30302 13.2802C1.30302 6.66594 6.77455 1.28477 13.5 1.28477C20.2255 1.28477 25.697 6.66594 25.697 13.2802C25.697 18.8613 21.682 23.7867 16.1503 24.9918Z" fill="#152C5B"/>
<path d="M23.1664 12.4034C22.6199 7.55596 18.4643 3.90054 13.5 3.90054C8.13692 3.90054 3.77362 8.19314 3.77362 13.4695C3.77362 15.8638 4.67701 18.155 6.31725 19.9209C7.5991 21.3023 9.24462 22.2765 11.0753 22.7382C11.8625 22.9375 12.6783 23.0385 13.5 23.0385C14.3218 23.0385 15.1376 22.9375 15.9243 22.7383C20.2237 21.6533 23.2264 17.8418 23.2264 13.4695C23.2264 13.1128 23.2062 12.7539 23.1664 12.4034ZM15.6008 21.4938C14.2379 21.8387 12.7627 21.8389 11.3987 21.4936C9.81359 21.0939 8.38893 20.2502 7.27843 19.0535C5.85859 17.5248 5.07664 15.5417 5.07664 13.4695C5.07664 8.90162 8.85534 5.18531 13.5 5.18531C17.7994 5.18531 21.3983 8.34943 21.8714 12.5459C21.9059 12.8496 21.9234 13.1603 21.9234 13.4695C21.9234 17.2547 19.3236 20.5543 15.6008 21.4938Z" fill="#152C5B"/>
</svg>
