<svg width="27" height="23" viewBox="0 0 27 23" fill="none" xmlns="http://www.w3.org/2000/svg">
<path d="M20.3555 10.0208C20.938 10.0208 21.4102 9.63064 21.4102 9.14941C21.4102 8.66819 20.938 8.27808 20.3555 8.27808C19.773 8.27808 19.3008 8.66819 19.3008 9.14941C19.3008 9.63064 19.773 10.0208 20.3555 10.0208Z" fill="white"/>
<path d="M22.7812 1.74275H21.4102V0.871375C21.4102 0.390114 20.938 0 20.3555 0C19.773 0 19.3008 0.390114 19.3008 0.871375V1.74275H14.502V0.871375C14.502 0.390114 14.0298 0 13.4473 0C12.8648 0 12.3926 0.390114 12.3926 0.871375V1.74275H7.64648V0.871375C7.64648 0.390114 7.1743 0 6.5918 0C6.00929 0 5.53711 0.390114 5.53711 0.871375V1.74275H4.21875C1.89253 1.74275 0 3.30634 0 5.22825V18.8217C0 20.7436 1.89253 22.3072 4.21875 22.3072H12.2871C12.8696 22.3072 13.3418 21.9171 13.3418 21.4358C13.3418 20.9546 12.8696 20.5644 12.2871 20.5644H4.21875C3.05564 20.5644 2.10938 19.7826 2.10938 18.8217V5.22825C2.10938 4.2673 3.05564 3.4855 4.21875 3.4855H5.53711V4.35687C5.53711 4.83813 6.00929 5.22825 6.5918 5.22825C7.1743 5.22825 7.64648 4.83813 7.64648 4.35687V3.4855H12.3926V4.35687C12.3926 4.83813 12.8648 5.22825 13.4473 5.22825C14.0298 5.22825 14.502 4.83813 14.502 4.35687V3.4855H19.3008V4.35687C19.3008 4.83813 19.773 5.22825 20.3555 5.22825C20.938 5.22825 21.4102 4.83813 21.4102 4.35687V3.4855H22.7812C23.9444 3.4855 24.8906 4.2673 24.8906 5.22825V10.1951C24.8906 10.6763 25.3628 11.0665 25.9453 11.0665C26.5278 11.0665 27 10.6763 27 10.1951V5.22825C27 3.30634 25.1075 1.74275 22.7812 1.74275Z" fill="white"/>
<path d="M20.6191 11.7635C17.1007 11.7635 14.2383 14.1284 14.2383 17.0353C14.2383 19.9423 17.1007 22.3072 20.6191 22.3072C24.1376 22.3072 27 19.9423 27 17.0353C27 14.1284 24.1376 11.7635 20.6191 11.7635ZM20.6191 20.5644C18.2639 20.5644 16.3477 18.9813 16.3477 17.0353C16.3477 15.0894 18.2639 13.5062 20.6191 13.5062C22.9744 13.5062 24.8906 15.0894 24.8906 17.0353C24.8906 18.9813 22.9744 20.5644 20.6191 20.5644Z" fill="white"/>
<path d="M22.1484 16.164H21.6738V15.2491C21.6738 14.7678 21.2016 14.3777 20.6191 14.3777C20.0366 14.3777 19.5645 14.7678 19.5645 15.2491V17.0354C19.5645 17.5167 20.0366 17.9068 20.6191 17.9068H22.1484C22.7309 17.9068 23.2031 17.5167 23.2031 17.0354C23.2031 16.5541 22.7309 16.164 22.1484 16.164Z" fill="white"/>
<path d="M15.7676 10.0208C16.3501 10.0208 16.8223 9.63064 16.8223 9.14941C16.8223 8.66819 16.3501 8.27808 15.7676 8.27808C15.1851 8.27808 14.7129 8.66819 14.7129 9.14941C14.7129 9.63064 15.1851 10.0208 15.7676 10.0208Z" fill="white"/>
<path d="M11.1797 13.8113C11.7622 13.8113 12.2344 13.4211 12.2344 12.9399C12.2344 12.4586 11.7622 12.0685 11.1797 12.0685C10.5972 12.0685 10.125 12.4586 10.125 12.9399C10.125 13.4211 10.5972 13.8113 11.1797 13.8113Z" fill="white"/>
<path d="M6.5918 10.0208C7.17428 10.0208 7.64648 9.63064 7.64648 9.14941C7.64648 8.66819 7.17428 8.27808 6.5918 8.27808C6.00931 8.27808 5.53711 8.66819 5.53711 9.14941C5.53711 9.63064 6.00931 10.0208 6.5918 10.0208Z" fill="white"/>
<path d="M6.5918 13.8113C7.17428 13.8113 7.64648 13.4211 7.64648 12.9399C7.64648 12.4586 7.17428 12.0685 6.5918 12.0685C6.00931 12.0685 5.53711 12.4586 5.53711 12.9399C5.53711 13.4211 6.00931 13.8113 6.5918 13.8113Z" fill="white"/>
<path d="M6.5918 17.6017C7.17428 17.6017 7.64648 17.2116 7.64648 16.7303C7.64648 16.2491 7.17428 15.8589 6.5918 15.8589C6.00931 15.8589 5.53711 16.2491 5.53711 16.7303C5.53711 17.2116 6.00931 17.6017 6.5918 17.6017Z" fill="white"/>
<path d="M11.1797 17.6017C11.7622 17.6017 12.2344 17.2116 12.2344 16.7303C12.2344 16.2491 11.7622 15.8589 11.1797 15.8589C10.5972 15.8589 10.125 16.2491 10.125 16.7303C10.125 17.2116 10.5972 17.6017 11.1797 17.6017Z" fill="white"/>
<path d="M11.1797 10.0208C11.7622 10.0208 12.2344 9.63064 12.2344 9.14941C12.2344 8.66819 11.7622 8.27808 11.1797 8.27808C10.5972 8.27808 10.125 8.66819 10.125 9.14941C10.125 9.63064 10.5972 10.0208 11.1797 10.0208Z" fill="white"/>
</svg>
