<svg width="30" height="30" viewBox="0 0 30 30" fill="none" xmlns="http://www.w3.org/2000/svg">
<g clip-path="url(#clip0)">
<path d="M29.9219 11.5078C29.7255 10.9004 29.1867 10.4689 28.5492 10.4115L19.8904 9.62523L16.4665 1.61119C16.214 1.02386 15.639 0.643677 15.0002 0.643677C14.3614 0.643677 13.7864 1.02386 13.534 1.61256L10.11 9.62523L1.44983 10.4115C0.813524 10.4703 0.276096 10.9004 0.0785657 11.5078C-0.118964 12.1153 0.0634591 12.7816 0.54481 13.2016L7.08985 18.9416L5.15987 27.4432C5.01865 28.0683 5.26127 28.7145 5.77993 29.0894C6.05871 29.2908 6.38488 29.3933 6.71379 29.3933C6.99738 29.3933 7.27869 29.3169 7.53115 29.1658L15.0002 24.7018L22.4665 29.1658C23.0129 29.4945 23.7016 29.4645 24.2191 29.0894C24.738 28.7133 24.9804 28.0669 24.8392 27.4432L22.9092 18.9416L29.4542 13.2027C29.9356 12.7816 30.1194 12.1164 29.9219 11.5078Z" fill="#FFC107"/>
</g>
<defs>
<clipPath id="clip0">
<rect width="30" height="30" fill="white"/>
</clipPath>
</defs>
</svg>
